<svg width="145" height="26" viewBox="0 0 145 26" fill="none" xmlns="http://www.w3.org/2000/svg">
  <style>
    root: {
      color-scheme: light dark;
    }

    .logo-fill {
      fill: #000000; /* light mode */
    }
    
    /* dark mode */
    @media (prefers-color-scheme: dark) {
      .logo-fill {
        fill: #F8F7F3 !important;
      }
    }
    </style>
<path class="logo-fill" d="M31.084 0.548876H29.2313L24.1526 24.5648H26.0054L31.084 0.548876ZM0 14.2729L1.40689 16.0562L4.63075 0.548876H3.87578C3.2575 0.548876 2.74438 0.925308 2.60558 1.57723L0 14.2729ZM2.16186 17.0173L3.63814 18.87L7.51392 0.548876H5.6612L2.16186 17.0173ZM4.42676 19.8983L5.86729 21.7174L10.3613 0.548876H8.50863L4.42676 19.8983ZM6.69166 22.7794L8.1322 24.5627H15.5094C15.9889 24.5627 16.3674 24.2199 16.4705 23.7741L16.6766 22.7794H8.51073L8.75047 21.7153H16.8806C17.0173 21.1664 17.1539 20.5482 17.257 19.9656H9.09115L9.33089 18.9015H17.4967C17.5998 18.319 17.7365 17.7344 17.8732 17.1182H9.70732L9.91341 16.0898H18.0793L18.216 15.4379C18.3526 14.8554 17.9068 14.3402 17.2906 14.3402H10.2919L12.969 1.68028C13.1057 1.02835 12.6599 0.548876 12.0437 0.548876H11.3918L6.69166 22.7815V22.7794ZM18.6996 23.4313C18.5629 24.0833 19.0088 24.5627 19.627 24.5627H20.279L25.3534 0.548876H24.5985C23.9802 0.548876 23.4671 0.925308 23.3283 1.57723L18.6975 23.4313H18.6996ZM21.3073 24.5627H23.1937L28.2366 0.548876H26.3839L21.3073 24.5648V24.5627ZM27.0358 24.5627H27.7908C28.4091 24.5627 28.9222 24.1842 29.061 23.5344L33.6917 1.68028C33.8284 1.02835 33.3826 0.548876 32.7664 0.548876H32.1145L27.0358 24.5648V24.5627ZM31.6666 23.4313C31.5299 24.0833 31.9757 24.5627 32.5919 24.5627H33.2438L38.3225 0.548876H37.5675C36.9492 0.548876 36.4361 0.925308 36.2973 1.57723L31.6666 23.4313ZM34.2743 24.5627H36.1606L41.2035 0.548876H39.3508L34.2721 24.5648L34.2743 24.5627ZM37.1217 24.5627H38.9744L44.051 0.548876H42.1983L37.1217 24.5648V24.5627ZM40.0028 24.5627H42.3349C42.7808 24.5627 43.4327 24.2199 43.8785 23.7741L66.1112 1.68028C66.6937 1.1314 66.6937 0.548876 66.1112 0.548876H64.8073L42.0952 23.1579L42.4716 21.3746L63.3331 0.548876H60.9315L43.1257 18.3548L43.4684 16.7081L59.4216 0.548876H57.0536L44.154 13.4822L44.5304 11.7661L55.6131 0.548876H54.0338C53.5543 0.548876 52.9024 0.858013 52.4566 1.30384L45.1487 8.78412L46.6587 1.68238C46.7954 1.03046 46.3495 0.550979 45.7334 0.550979H45.0814L40.0028 24.5669V24.5627ZM64.0187 12.5884C64.0187 19.5534 69.5769 25.1116 76.5756 25.1116C82.5459 25.1116 87.4521 21.3389 88.7896 16.1235C90.2996 21.3389 95.1027 25.1116 100.831 25.1116C106.56 25.1116 111.365 21.3725 112.873 16.1908C114.589 21.0634 119.22 24.5627 124.744 24.5627H127.558V16.603H124.744C122.136 16.603 120.113 14.6136 120.113 12.0059V0.548876H112.187V7.13539C110.164 2.88107 105.874 0 100.831 0C95.0333 0 90.1965 3.84213 88.7202 9.16055H76.7122V15.4737H80.2116C79.3199 16.502 78.0497 17.1897 76.5756 17.1897C73.9679 17.1897 71.9448 15.1666 71.9448 12.559C71.9448 9.95127 73.9679 7.92821 76.5756 7.92821C77.2611 7.92821 77.9488 8.10065 78.5313 8.37404L82.4071 1.40899C80.6574 0.483684 78.7017 0.00210297 76.5756 0.00210297C69.5769 0.00210297 64.0187 5.56026 64.0187 12.5926M96.2005 12.559C96.2005 9.95127 98.2236 7.92821 100.831 7.92821C103.439 7.92821 105.462 9.95127 105.462 12.559C105.462 15.1666 103.439 17.1897 100.831 17.1897C98.2236 17.1897 96.2005 15.1666 96.2005 12.559ZM128.792 24.5669H136.718V18.9057H142.346V12.6263H136.754C136.96 10.2583 138.916 8.47498 141.351 8.47498H144.165V0.548876H141.351C134.353 0.548876 128.794 6.10704 128.794 13.0721V24.5648L128.792 24.5669Z"/>
</svg>
